<svg width="50" height="50" viewBox="0 0 58 63" fill="none" xmlns="http://www.w3.org/2000/svg">
<g filter="url(#filter0_d_17_98)">
<rect x="4" width="50" height="54.5" rx="6" fill="#2F24B5"/>
</g>
<path d="M19.0625 50.625C19.0625 51.6527 19.4708 52.6383 20.1975 53.365C20.9242 54.0917 21.9098 54.5 22.9375 54.5H34.5625C35.5902 54.5 36.5758 54.0917 37.3025 53.365C38.0292 52.6383 38.4375 51.6527 38.4375 50.625V48.6875H19.0625V50.625ZM19.0625 42.875H38.4375V46.75H19.0625V42.875ZM48.125 21.5625H52V25.4375H48.125V21.5625ZM44.8114 16.3196L48.6857 12.4454L51.4253 15.185L47.551 19.0592L44.8114 16.3196ZM44.8109 30.6847L47.5505 27.9451L51.4248 31.8194L48.6852 34.559L44.8109 30.6847ZM5.5 21.5625H9.375V25.4375H5.5V21.5625ZM6.06672 15.1821L8.80634 12.4424L12.6806 16.3167L9.94099 19.0563L6.06672 15.1821ZM6.06551 31.8145L9.93978 27.9403L12.6794 30.6799L8.80513 34.5542L6.06551 31.8145ZM28.75 8C25.3378 7.99987 22.0209 9.1257 19.3138 11.2029C16.6067 13.28 14.6607 16.1924 13.7776 19.4883C12.8944 22.7843 13.1236 26.2795 14.4294 29.4319C15.7353 32.5843 18.0449 35.2178 21 36.9237V40.9375H26.8125V30.3493L21.8627 27.0495C21.5973 26.8726 21.3797 26.6329 21.2292 26.3517C21.0787 26.0704 21 25.7564 21 25.4375V21.5625H24.875V24.4007L28.75 26.9839L32.625 24.4007V21.5625H36.5V25.4375C36.5 25.7565 36.4212 26.0705 36.2707 26.3517C36.1201 26.6329 35.9025 26.8726 35.6371 27.0495L30.6875 30.3493V40.9375H36.5V36.9237C39.4551 35.2178 41.7647 32.5843 43.0706 29.4319C44.3764 26.2795 44.6056 22.7843 43.7224 19.4883C42.8393 16.1924 40.8933 13.28 38.1862 11.2029C35.4791 9.1257 32.1622 7.99987 28.75 8ZM34.5625 17.6875C34.1793 17.6875 33.8047 17.5739 33.4861 17.361C33.1675 17.1481 32.9191 16.8455 32.7725 16.4914C32.6258 16.1374 32.5875 15.7479 32.6622 15.372C32.737 14.9962 32.9215 14.6509 33.1925 14.38C33.4634 14.109 33.8087 13.9245 34.1845 13.8497C34.5604 13.775 34.9499 13.8133 35.3039 13.96C35.658 14.1066 35.9606 14.355 36.1735 14.6736C36.3864 14.9922 36.5 15.3668 36.5 15.75C36.5 16.2639 36.2959 16.7567 35.9325 17.12C35.5692 17.4834 35.0764 17.6875 34.5625 17.6875Z" fill="white"/>
<defs>
<filter id="filter0_d_17_98" x="0" y="0" width="58" height="62.5" filterUnits="userSpaceOnUse" color-interpolation-filters="sRGB">
<feFlood flood-opacity="0" result="BackgroundImageFix"/>
<feColorMatrix in="SourceAlpha" type="matrix" values="0 0 0 0 0 0 0 0 0 0 0 0 0 0 0 0 0 0 127 0" result="hardAlpha"/>
<feOffset dy="4"/>
<feGaussianBlur stdDeviation="2"/>
<feComposite in2="hardAlpha" operator="out"/>
<feColorMatrix type="matrix" values="0 0 0 0 0 0 0 0 0 0 0 0 0 0 0 0 0 0 0.25 0"/>
<feBlend mode="normal" in2="BackgroundImageFix" result="effect1_dropShadow_17_98"/>
<feBlend mode="normal" in="SourceGraphic" in2="effect1_dropShadow_17_98" result="shape"/>
</filter>
</defs>
</svg>
