<svg width="40" height="40" viewBox="0 0 50 55" fill="none" xmlns="http://www.w3.org/2000/svg">
<rect width="50" height="54.5" rx="5" fill="#2F24B5"/>
<path d="M15.0625 50.625C15.0625 51.6527 15.4708 52.6383 16.1975 53.365C16.9242 54.0917 17.9098 54.5 18.9375 54.5H30.5625C31.5902 54.5 32.5758 54.0917 33.3025 53.365C34.0292 52.6383 34.4375 51.6527 34.4375 50.625V48.6875H15.0625V50.625ZM15.0625 42.875H34.4375V46.75H15.0625V42.875ZM44.125 21.5625H48V25.4375H44.125V21.5625ZM40.8114 16.3196L44.6857 12.4454L47.4253 15.185L43.551 19.0592L40.8114 16.3196ZM40.8109 30.6847L43.5505 27.9451L47.4248 31.8194L44.6852 34.559L40.8109 30.6847ZM1.5 21.5625H5.375V25.4375H1.5V21.5625ZM2.06672 15.1821L4.80634 12.4424L8.68062 16.3167L5.94099 19.0563L2.06672 15.1821ZM2.06551 31.8145L5.93978 27.9403L8.67941 30.6799L4.80513 34.5542L2.06551 31.8145ZM24.75 8C21.3378 7.99987 18.0209 9.1257 15.3138 11.2029C12.6067 13.28 10.6607 16.1924 9.77756 19.4883C8.89443 22.7843 9.12357 26.2795 10.4294 29.4319C11.7353 32.5843 14.0449 35.2178 17 36.9237V40.9375H22.8125V30.3493L17.8627 27.0495C17.5973 26.8726 17.3797 26.6329 17.2292 26.3517C17.0787 26.0704 17 25.7564 17 25.4375V21.5625H20.875V24.4007L24.75 26.9839L28.625 24.4007V21.5625H32.5V25.4375C32.5 25.7565 32.4212 26.0705 32.2707 26.3517C32.1201 26.6329 31.9025 26.8726 31.6371 27.0495L26.6875 30.3493V40.9375H32.5V36.9237C35.4551 35.2178 37.7647 32.5843 39.0706 29.4319C40.3764 26.2795 40.6056 22.7843 39.7224 19.4883C38.8393 16.1924 36.8933 13.28 34.1862 11.2029C31.4791 9.1257 28.1622 7.99987 24.75 8ZM30.5625 17.6875C30.1793 17.6875 29.8047 17.5739 29.4861 17.361C29.1675 17.1481 28.9191 16.8455 28.7725 16.4914C28.6258 16.1374 28.5875 15.7479 28.6622 15.372C28.737 14.9962 28.9215 14.6509 29.1925 14.38C29.4634 14.109 29.8087 13.9245 30.1845 13.8497C30.5604 13.775 30.9499 13.8133 31.3039 13.96C31.658 14.1066 31.9606 14.355 32.1735 14.6736C32.3864 14.9922 32.5 15.3668 32.5 15.75C32.5 16.2639 32.2959 16.7567 31.9325 17.12C31.5692 17.4834 31.0764 17.6875 30.5625 17.6875Z" fill="white"/>
</svg>
