<svg width="40" height="40" viewBox="0 0 50 55" fill="none" xmlns="http://www.w3.org/2000/svg">
<rect width="50" height="54.5" rx="5" fill="#2F24B5"/>
<path d="M32.8333 21.2083C32.8333 13.6497 25.8054 7.5 17.1667 7.5C8.52797 7.5 1.5 13.6497 1.5 21.2083C1.5 24.4469 2.77757 27.5205 5.12292 29.9785L3.51684 36.4001C3.42842 36.754 3.44056 37.1254 3.5519 37.4728C3.66324 37.8201 3.86936 38.1294 4.14702 38.3658C4.42469 38.6023 4.76288 38.7565 5.12348 38.8112C5.48408 38.8658 5.85277 38.8186 6.18801 38.675L15.2096 34.8085C15.2612 34.8141 15.3129 34.8161 15.3645 34.8212C16.5003 27.1504 23.8984 21.2083 32.8333 21.2083ZM23.0417 19.25C23.429 19.25 23.8076 19.3649 24.1297 19.58C24.4517 19.7952 24.7027 20.1011 24.8509 20.4589C24.9992 20.8168 25.0379 21.2105 24.9624 21.5904C24.8868 21.9703 24.7003 22.3192 24.4264 22.5931C24.1525 22.867 23.8036 23.0535 23.4237 23.129C23.0438 23.2046 22.6501 23.1658 22.2923 23.0176C21.9344 22.8694 21.6286 22.6184 21.4134 22.2963C21.1982 21.9743 21.0833 21.5957 21.0833 21.2083C21.0833 20.689 21.2897 20.1908 21.6569 19.8236C22.0242 19.4563 22.5223 19.25 23.0417 19.25ZM11.2917 23.1667C10.9043 23.1667 10.5257 23.0518 10.2037 22.8366C9.88163 22.6215 9.63063 22.3156 9.48241 21.9578C9.33418 21.5999 9.2954 21.2062 9.37097 20.8263C9.44653 20.4464 9.63304 20.0975 9.90692 19.8236C10.1808 19.5497 10.5297 19.3632 10.9096 19.2876C11.2895 19.2121 11.6833 19.2509 12.0411 19.3991C12.3989 19.5473 12.7048 19.7983 12.92 20.1203C13.1351 20.4424 13.25 20.821 13.25 21.2083C13.25 21.7277 13.0437 22.2258 12.6764 22.5931C12.3092 22.9604 11.8111 23.1667 11.2917 23.1667ZM17.1667 23.1667C16.7794 23.1667 16.4007 23.0518 16.0787 22.8366C15.7566 22.6215 15.5056 22.3156 15.3574 21.9578C15.2092 21.5999 15.1704 21.2062 15.246 20.8263C15.3215 20.4464 15.508 20.0975 15.7819 19.8236C16.0558 19.5497 16.4047 19.3632 16.7846 19.2876C17.1645 19.2121 17.5583 19.2509 17.9161 19.3991C18.2739 19.5473 18.5798 19.7983 18.795 20.1203C19.0102 20.4424 19.125 20.821 19.125 21.2083C19.125 21.7277 18.9187 22.2258 18.5514 22.5931C18.1842 22.9604 17.6861 23.1667 17.1667 23.1667Z" fill="white"/>
<path d="M44.8769 45.6452C47.2223 43.187 48.4998 40.1134 48.4998 36.8748C48.4998 29.3162 41.4719 23.1665 32.8332 23.1665C24.1945 23.1665 17.1665 29.3162 17.1665 36.8748C17.1665 44.4335 24.1945 50.5832 32.8332 50.5832C33.4869 50.5828 34.1402 50.5467 34.79 50.4752L43.8118 54.3415C44.1471 54.4851 44.5158 54.5323 44.8764 54.4777C45.237 54.423 45.5752 54.2688 45.8528 54.0323C46.1305 53.7959 46.3366 53.4866 46.4479 53.1393C46.5593 52.792 46.5714 52.4205 46.483 52.0666L44.8769 45.6452ZM26.9582 38.8332C26.5709 38.8332 26.1922 38.7183 25.8702 38.5031C25.5481 38.288 25.2971 37.9821 25.1489 37.6243C25.0007 37.2664 24.9619 36.8727 25.0375 36.4928C25.113 36.1129 25.2995 35.764 25.5734 35.4901C25.8473 35.2162 26.1962 35.0297 26.5761 34.9541C26.956 34.8786 27.3498 34.9174 27.7076 35.0656C28.0654 35.2138 28.3713 35.4648 28.5865 35.7869C28.8017 36.1089 28.9165 36.4875 28.9165 36.8748C28.9165 37.3942 28.7102 37.8923 28.3429 38.2596C27.9757 38.6269 27.4776 38.8332 26.9582 38.8332ZM32.8332 38.8332C32.4459 38.8332 32.0672 38.7183 31.7452 38.5031C31.4231 38.288 31.1721 37.9821 31.0239 37.6243C30.8757 37.2664 30.8369 36.8727 30.9125 36.4928C30.988 36.1129 31.1745 35.764 31.4484 35.4901C31.7223 35.2162 32.0712 35.0297 32.4511 34.9541C32.831 34.8786 33.2248 34.9174 33.5826 35.0656C33.9404 35.2138 34.2463 35.4648 34.4615 35.7869C34.6767 36.1089 34.7915 36.4875 34.7915 36.8748C34.7915 37.3942 34.5852 37.8923 34.2179 38.2596C33.8507 38.6269 33.3526 38.8332 32.8332 38.8332ZM38.7082 38.8332C38.3209 38.8332 37.9422 38.7183 37.6202 38.5031C37.2981 38.288 37.0471 37.9821 36.8989 37.6243C36.7507 37.2664 36.7119 36.8727 36.7875 36.4928C36.863 36.1129 37.0495 35.764 37.3234 35.4901C37.5973 35.2162 37.9462 35.0297 38.3261 34.9541C38.706 34.8786 39.0998 34.9174 39.4576 35.0656C39.8154 35.2138 40.1213 35.4648 40.3365 35.7869C40.5517 36.1089 40.6665 36.4875 40.6665 36.8748C40.6665 37.3942 40.4602 37.8923 40.0929 38.2596C39.7257 38.6269 39.2276 38.8332 38.7082 38.8332Z" fill="white"/>
</svg>
