<svg width="40" height="40" viewBox="0 0 50 55" fill="none" xmlns="http://www.w3.org/2000/svg">
<rect width="50" height="54.5" rx="5" fill="#2F24B5"/>
<path d="M25 35.425C14.4143 35.425 6 43.8725 6 54.5H44C44 43.8725 35.5857 35.425 25 35.425ZM33.1429 11.445L41.2857 8.175L25 0L8.71429 8.175L10.0714 8.9925V12.535C9.25714 13.625 8.71429 15.26 8.71429 16.0775C8.71429 17.7125 9.8 19.075 11.4286 19.075C13.0571 19.075 14.1429 17.7125 14.1429 16.0775C14.1429 15.26 13.3286 13.625 12.7857 12.535V9.81L16.8571 11.445V14.715C15.2286 16.6225 14.1429 19.075 14.1429 21.8C14.1429 27.795 19.0286 32.7 25 32.7C30.9714 32.7 35.8571 27.795 35.8571 21.8C35.8571 19.075 34.7714 16.6225 33.1429 14.715V11.445Z" fill="white"/>
</svg>
