<svg width="40" height="40" viewBox="0 0 50 55" fill="none" xmlns="http://www.w3.org/2000/svg">
<path d="M47.7273 0H45.4545V6.81818L37.4682 10.8114C37.3276 10.8815 37.1741 10.9218 37.0172 10.9296C36.8603 10.9374 36.7035 10.9126 36.5566 10.8568C36.4098 10.8009 36.2761 10.7152 36.1641 10.6051C36.0521 10.495 35.9641 10.3629 35.9057 10.217L31.8182 0H29.3705L31.25 4.69943L29.4776 11.3472H20.5224L18.6722 4.40767L20.3222 0.00767045C20.3662 0.00511364 20.4099 0 20.4545 0H17.8977L14.0795 10.1818C14.0236 10.3309 13.937 10.4666 13.8252 10.5801C13.7135 10.6936 13.5791 10.7823 13.4309 10.8405C13.2827 10.8987 13.1238 10.9251 12.9647 10.918C12.8057 10.9108 12.6498 10.8704 12.5074 10.7991L4.54545 6.81818V0H2.27273C1.66996 0 1.09189 0.239447 0.665666 0.665666C0.239447 1.09189 0 1.66996 0 2.27273V52.2727C0 52.8755 0.239447 53.4536 0.665666 53.8798C1.09189 54.306 1.66996 54.5455 2.27273 54.5455H47.7273C48.33 54.5455 48.9081 54.306 49.3343 53.8798C49.7606 53.4536 50 52.8755 50 52.2727V2.27273C50 1.66996 49.7606 1.09189 49.3343 0.665666C48.9081 0.239447 48.33 0 47.7273 0ZM33.4253 42.5162L26.6071 49.3344C26.3961 49.5454 26.1455 49.7128 25.8698 49.8271C25.594 49.9413 25.2985 50.0001 25 50.0001C24.7015 50.0001 24.406 49.9413 24.1302 49.8271C23.8545 49.7128 23.6039 49.5454 23.3929 49.3344L16.5747 42.5162C16.3223 42.2638 16.1329 41.9554 16.0218 41.6161C15.9108 41.2769 15.8812 40.9162 15.9355 40.5634L20.0781 13.6364H29.9219L34.0645 40.5634C34.1188 40.9162 34.0892 41.2769 33.9782 41.6161C33.8671 41.9554 33.6777 42.2638 33.4253 42.5162Z" fill="#2F24B5"/>
</svg>
