<svg width="50" height="50" viewBox="0 0 58 63" fill="none" xmlns="http://www.w3.org/2000/svg">
<g filter="url(#filter0_d_14_91)">
<path d="M51.7273 0H49.4545V6.81818L41.4682 10.8114C41.3276 10.8815 41.1741 10.9218 41.0172 10.9296C40.8603 10.9374 40.7035 10.9126 40.5566 10.8568C40.4098 10.8009 40.2761 10.7152 40.1641 10.6051C40.0521 10.495 39.9641 10.3629 39.9057 10.217L35.8182 0H33.3705L35.25 4.69943L33.4776 11.3472H24.5224L22.6722 4.40767L24.3222 0.00767045C24.3662 0.00511364 24.4099 0 24.4545 0H21.8977L18.0795 10.1818C18.0236 10.3309 17.937 10.4666 17.8252 10.5801C17.7135 10.6936 17.5791 10.7823 17.4309 10.8405C17.2827 10.8987 17.1238 10.9251 16.9647 10.918C16.8057 10.9108 16.6498 10.8704 16.5074 10.7991L8.54545 6.81818V0H6.27273C5.66996 0 5.09189 0.239447 4.66567 0.665666C4.23945 1.09189 4 1.66996 4 2.27273V52.2727C4 52.8755 4.23945 53.4536 4.66567 53.8798C5.09189 54.306 5.66996 54.5455 6.27273 54.5455H51.7273C52.33 54.5455 52.9081 54.306 53.3343 53.8798C53.7606 53.4536 54 52.8755 54 52.2727V2.27273C54 1.66996 53.7606 1.09189 53.3343 0.665666C52.9081 0.239447 52.33 0 51.7273 0ZM37.4253 42.5162L30.6071 49.3344C30.3961 49.5454 30.1455 49.7128 29.8698 49.8271C29.594 49.9413 29.2985 50.0001 29 50.0001C28.7015 50.0001 28.406 49.9413 28.1302 49.8271C27.8545 49.7128 27.6039 49.5454 27.3929 49.3344L20.5747 42.5162C20.3223 42.2638 20.1329 41.9554 20.0218 41.6161C19.9108 41.2769 19.8812 40.9162 19.9355 40.5634L24.0781 13.6364H33.9219L38.0645 40.5634C38.1188 40.9162 38.0892 41.2769 37.9782 41.6161C37.8671 41.9554 37.6777 42.2638 37.4253 42.5162Z" fill="#2F24B5"/>
</g>
<defs>
<filter id="filter0_d_14_91" x="0" y="0" width="58" height="62.5454" filterUnits="userSpaceOnUse" color-interpolation-filters="sRGB">
<feFlood flood-opacity="0" result="BackgroundImageFix"/>
<feColorMatrix in="SourceAlpha" type="matrix" values="0 0 0 0 0 0 0 0 0 0 0 0 0 0 0 0 0 0 127 0" result="hardAlpha"/>
<feOffset dy="4"/>
<feGaussianBlur stdDeviation="2"/>
<feComposite in2="hardAlpha" operator="out"/>
<feColorMatrix type="matrix" values="0 0 0 0 0 0 0 0 0 0 0 0 0 0 0 0 0 0 0.25 0"/>
<feBlend mode="normal" in2="BackgroundImageFix" result="effect1_dropShadow_14_91"/>
<feBlend mode="normal" in="SourceGraphic" in2="effect1_dropShadow_14_91" result="shape"/>
</filter>
</defs>
</svg>
