<svg width="20" height="20" viewBox="0 0 20 20" fill="none" xmlns="http://www.w3.org/2000/svg">
<path d="M10 0.229557C7.1518 0.292155 4.78873 1.26242 2.9108 3.14036C1.03286 5.01829 0.0625978 7.38136 0 10.2296C0.0312989 12.4831 0.672927 14.4549 1.92488 16.1451C3.17684 17.8352 4.82003 19.0402 6.85446 19.7601C7.07355 19.7914 7.23787 19.7523 7.34742 19.6427C7.45696 19.5332 7.51174 19.4001 7.51174 19.2436V17.5535C6.13459 17.7726 5.21909 17.6239 4.76526 17.1075C4.31142 16.5911 4.10016 16.2859 4.13146 16.192C3.88106 15.6286 3.6385 15.2452 3.40376 15.0418C3.16901 14.8383 3.03599 14.7366 3.00469 14.7366C2.62911 14.4549 2.53521 14.2828 2.723 14.2202C2.9108 14.1576 3.03599 14.1263 3.09859 14.1263C3.59937 14.2202 3.97496 14.408 4.22535 14.6897C4.47574 14.9713 4.60094 15.1278 4.60094 15.1591C5.07042 15.879 5.59468 16.2389 6.17371 16.2389C6.75274 16.2389 7.2144 16.1607 7.55869 16.0042C7.65258 15.3469 7.85603 14.8931 8.16901 14.6427C7.01095 14.5801 5.97809 14.2123 5.07042 13.5394C4.16275 12.8665 3.67762 11.5911 3.61502 9.71313C3.61502 8.61766 3.95931 7.72565 4.64789 7.03707C4.58529 6.88057 4.52269 6.56759 4.46009 6.0981C4.3975 5.62862 4.49139 5.04959 4.74178 4.36101C4.74178 4.32971 4.96088 4.34536 5.39906 4.40796C5.83725 4.47056 6.54147 4.7992 7.51174 5.39388C8.29421 5.17478 9.12363 5.06524 10 5.06524C10.8764 5.06524 11.7058 5.17478 12.4883 5.39388C13.4585 4.7992 14.1628 4.47056 14.6009 4.40796C15.0391 4.34536 15.2582 4.32971 15.2582 4.36101C15.5086 5.04959 15.6103 5.62862 15.5634 6.0981C15.5164 6.56759 15.446 6.88057 15.3521 7.03707C16.0407 7.72565 16.385 8.61766 16.385 9.71313C16.3224 11.5911 15.8372 12.8665 14.9296 13.5394C14.0219 14.2123 12.989 14.5801 11.831 14.6427C12.0188 14.7992 12.1753 15.0339 12.3005 15.3469C12.4257 15.6599 12.4883 16.0512 12.4883 16.5206V19.2436C12.4883 19.4001 12.543 19.5332 12.6526 19.6427C12.7621 19.7523 12.9421 19.7914 13.1925 19.7601C15.1956 19.0402 16.8232 17.8352 18.0751 16.1451C19.3271 14.4549 19.9687 12.4831 20 10.2296C19.9374 7.38136 18.9671 5.01829 17.0892 3.14036C15.2113 1.26242 12.8482 0.292155 10 0.229557Z" fill="white"/>
</svg>
