<svg width="20" height="20" viewBox="0 0 20 20" fill="none" xmlns="http://www.w3.org/2000/svg">
<path d="M10 0.229527C7.1518 0.292124 4.78873 1.26239 2.9108 3.14033C1.03286 5.01826 0.0625978 7.38133 0 10.2295C0.0312989 12.483 0.672926 14.4549 1.92488 16.145C3.17684 17.8352 4.82003 19.0402 6.85446 19.76C7.07355 19.7913 7.23787 19.7522 7.34742 19.6427C7.45696 19.5331 7.51174 19.4001 7.51174 19.2436V17.5535C6.13459 17.7726 5.21909 17.6239 4.76526 17.1075C4.31142 16.591 4.10016 16.2859 4.13146 16.192C3.88106 15.6286 3.6385 15.2452 3.40376 15.0417C3.16901 14.8383 3.03599 14.7366 3.00469 14.7366C2.62911 14.4549 2.53521 14.2827 2.723 14.2201C2.9108 14.1575 3.03599 14.1262 3.09859 14.1262C3.59937 14.2201 3.97496 14.4079 4.22535 14.6896C4.47574 14.9713 4.60094 15.1278 4.60094 15.1591C5.07042 15.879 5.59468 16.2389 6.17371 16.2389C6.75274 16.2389 7.2144 16.1607 7.55869 16.0042C7.65258 15.3469 7.85603 14.8931 8.16901 14.6427C7.01095 14.5801 5.97809 14.2123 5.07042 13.5394C4.16275 12.8665 3.67762 11.591 3.61502 9.7131C3.61502 8.61763 3.95931 7.72561 4.64789 7.03704C4.58529 6.88054 4.52269 6.56756 4.46009 6.09807C4.3975 5.62859 4.49139 5.04956 4.74178 4.36098C4.74178 4.32968 4.96088 4.34533 5.39906 4.40793C5.83725 4.47053 6.54147 4.79917 7.51174 5.39385C8.29421 5.17475 9.12363 5.06521 10 5.06521C10.8764 5.06521 11.7058 5.17475 12.4883 5.39385C13.4585 4.79917 14.1628 4.47053 14.6009 4.40793C15.0391 4.34533 15.2582 4.32968 15.2582 4.36098C15.5086 5.04956 15.6103 5.62859 15.5634 6.09807C15.5164 6.56756 15.446 6.88054 15.3521 7.03704C16.0407 7.72561 16.385 8.61763 16.385 9.7131C16.3224 11.591 15.8372 12.8665 14.9296 13.5394C14.0219 14.2123 12.989 14.5801 11.831 14.6427C12.0188 14.7992 12.1753 15.0339 12.3005 15.3469C12.4257 15.6599 12.4883 16.0511 12.4883 16.5206V19.2436C12.4883 19.4001 12.543 19.5331 12.6526 19.6427C12.7621 19.7522 12.9421 19.7913 13.1925 19.76C15.1956 19.0402 16.8232 17.8352 18.0751 16.145C19.3271 14.4549 19.9687 12.483 20 10.2295C19.9374 7.38133 18.9671 5.01826 17.0892 3.14033C15.2113 1.26239 12.8482 0.292124 10 0.229527Z" fill="#2F24B5"/>
</svg>
