<svg width="20" height="20" viewBox="0 0 20 20" fill="none" xmlns="http://www.w3.org/2000/svg">
<path d="M5.77465 -6.85453e-07H14.2254C15.8529 0.0312982 17.2144 0.594678 18.3099 1.69014C19.4053 2.7856 19.9687 4.1471 20 5.77465V14.2254C19.9687 15.8529 19.4053 17.2144 18.3099 18.3099C17.2144 19.4053 15.8529 19.9687 14.2254 20H5.77465C4.1471 19.9687 2.7856 19.4053 1.69014 18.3099C0.594679 17.2144 0.0312989 15.8529 0 14.2254V5.77465C0.0312989 4.1471 0.594679 2.7856 1.69014 1.69014C2.7856 0.594678 4.1471 0.0312982 5.77465 -6.85453e-07ZM5.58685 1.97183C4.55399 2.00313 3.7011 2.35524 3.02817 3.02817C2.35524 3.70109 2.00313 4.55399 1.97183 5.58685V14.4131C2.00313 15.446 2.35524 16.2989 3.02817 16.9718C3.7011 17.6448 4.55399 17.9969 5.58685 18.0282H14.4131C15.446 17.9969 16.2989 17.6448 16.9718 16.9718C17.6448 16.2989 17.9969 15.446 18.0282 14.4131V5.58685C17.9969 4.55399 17.6448 3.70109 16.9718 3.02817C16.2989 2.35524 15.446 2.00313 14.4131 1.97183H5.58685ZM15.2582 3.47418C15.6025 3.50548 15.892 3.6385 16.1268 3.87324C16.3615 4.10798 16.4789 4.3975 16.4789 4.74178C16.4789 5.08607 16.3615 5.37559 16.1268 5.61033C15.892 5.84507 15.6025 5.96244 15.2582 5.96244C14.9139 5.96244 14.6244 5.84507 14.3897 5.61033C14.1549 5.37559 14.0376 5.08607 14.0376 4.74178C14.0376 4.3975 14.1549 4.10798 14.3897 3.87324C14.6244 3.6385 14.9139 3.50548 15.2582 3.47418ZM10 4.97653C11.4085 5.00782 12.59 5.50078 13.5446 6.4554C14.4992 7.41002 14.9922 8.59155 15.0235 10C14.9922 11.4085 14.4992 12.59 13.5446 13.5446C12.59 14.4992 11.4085 14.9922 10 15.0235C8.59155 14.9922 7.41002 14.4992 6.4554 13.5446C5.50078 12.59 5.00782 11.4085 4.97653 10C5.00782 8.59155 5.50078 7.41002 6.4554 6.4554C7.41002 5.50078 8.59155 5.00782 10 4.97653ZM10 6.9953C9.15493 7.0266 8.4507 7.32394 7.88732 7.88732C7.32394 8.4507 7.04225 9.15493 7.04225 10C7.04225 10.8451 7.32394 11.5493 7.88732 12.1127C8.4507 12.6761 9.15493 12.9577 10 12.9577C10.8451 12.9577 11.5493 12.6761 12.1127 12.1127C12.6761 11.5493 12.9577 10.8451 12.9577 10C12.9577 9.15493 12.6761 8.4507 12.1127 7.88732C11.5493 7.32394 10.8451 7.0266 10 6.9953Z" fill="white"/>
</svg>
