<svg width="20" height="20" viewBox="0 0 20 20" fill="none" xmlns="http://www.w3.org/2000/svg">
<path d="M11.9141 10C11.9141 11.0571 11.0571 11.9141 10 11.9141C8.94289 11.9141 8.08594 11.0571 8.08594 10C8.08594 8.94289 8.94289 8.08594 10 8.08594C11.0571 8.08594 11.9141 8.94289 11.9141 10Z" fill="white"/>
<path d="M14.4765 6.61346C14.3844 6.36404 14.2376 6.13842 14.0469 5.95318C13.8617 5.76244 13.6361 5.61566 13.3867 5.52365C13.1843 5.4451 12.8804 5.35154 12.3205 5.32607C11.7149 5.29846 11.5333 5.29248 10.0001 5.29248C8.46678 5.29248 8.28522 5.2983 7.67975 5.32592C7.1199 5.35154 6.81576 5.44506 6.61361 5.52365C6.36416 5.61562 6.13852 5.76241 5.95334 5.95318C5.7626 6.13842 5.61577 6.36404 5.52365 6.61346C5.4451 6.8158 5.35154 7.1199 5.32607 7.67975C5.29846 8.28521 5.29248 8.46678 5.29248 10.0001C5.29248 11.5333 5.29846 11.7149 5.32607 12.3205C5.35154 12.8804 5.4451 13.1844 5.52365 13.3867C5.61572 13.6361 5.76249 13.8617 5.95318 14.0469C6.13839 14.2377 6.36402 14.3845 6.61346 14.4765C6.8158 14.5552 7.1199 14.6487 7.67975 14.6742C8.28522 14.7018 8.46662 14.7076 9.99998 14.7076C11.5335 14.7076 11.7151 14.7018 12.3204 14.6742C12.8802 14.6487 13.1844 14.5552 13.3867 14.4765C13.6343 14.3809 13.8592 14.2346 14.0469 14.0469C14.2346 13.8592 14.3809 13.6343 14.4765 13.3867C14.555 13.1843 14.6486 12.8804 14.6742 12.3205C14.7018 11.7149 14.7076 11.5333 14.7076 10.0001C14.7076 8.46678 14.7018 8.28521 14.6742 7.67975C14.6487 7.1199 14.5552 6.81576 14.4765 6.61346ZM10.0001 12.9486C8.37158 12.9486 7.05139 11.6285 7.05139 9.99998C7.05139 8.37143 8.37158 7.05139 10.0001 7.05139C11.6286 7.05139 12.9487 8.37143 12.9487 9.99998C12.9487 11.6285 11.6286 12.9486 10.0001 12.9486ZM13.0653 7.62389C12.6848 7.62389 12.3763 7.31533 12.3763 6.93482C12.3763 6.55432 12.6848 6.24572 13.0653 6.24572C13.4459 6.24572 13.7544 6.55424 13.7544 6.93479C13.7542 7.31533 13.4459 7.62389 13.0653 7.62389Z" fill="white"/>
<path d="M10 0C4.47801 0 0 4.47801 0 10C0 15.522 4.47801 20 10 20C15.522 20 20 15.522 20 10C20 4.47801 15.522 0 10 0ZM15.7075 12.3674C15.6798 12.9787 15.5826 13.396 15.4407 13.7613C15.2931 14.1427 15.0676 14.4892 14.7784 14.7784C14.4892 15.0676 14.1427 15.2931 13.7613 15.4407C13.3961 15.5826 12.9787 15.6796 12.3675 15.7075C11.7552 15.7355 11.5596 15.7422 10.0002 15.7422C8.44055 15.7422 8.24508 15.7355 7.63258 15.7075C7.02148 15.6796 6.60402 15.5826 6.23883 15.4407C5.85563 15.2965 5.50852 15.0705 5.22172 14.7783C4.92964 14.4915 4.70364 14.1444 4.55949 13.7613C4.41758 13.3961 4.32039 12.9787 4.29262 12.3675C4.26437 11.755 4.25781 11.5595 4.25781 10C4.25781 8.44055 4.26438 8.24492 4.29246 7.63262C4.3202 7.02133 4.41727 6.60402 4.55918 6.23871C4.70338 5.85554 4.92947 5.50847 5.22168 5.22172C5.50844 4.92954 5.85553 4.70348 6.23871 4.55934C6.60402 4.41742 7.02133 4.32039 7.63262 4.29246C8.24492 4.26453 8.44055 4.25781 10 4.25781C11.5595 4.25781 11.7551 4.26453 12.3674 4.29258C12.9787 4.32039 13.396 4.41742 13.7613 4.55918C14.1445 4.7034 14.4916 4.92949 14.7785 5.22168C15.0706 5.50848 15.2965 5.85557 15.4407 6.23871C15.5827 6.60402 15.6798 7.02133 15.7077 7.63262C15.7356 8.24492 15.7422 8.44055 15.7422 10C15.7422 11.5595 15.7356 11.7551 15.7075 12.3674Z" fill="white"/>
</svg>
