<svg width="21" height="20" viewBox="0 0 21 20" fill="none" xmlns="http://www.w3.org/2000/svg">
<path d="M6.27465 0H14.7254C16.3529 0.0312977 17.7144 0.594679 18.8099 1.69014C19.9053 2.7856 20.4687 4.1471 20.5 5.77465V14.2254C20.4687 15.8529 19.9053 17.2144 18.8099 18.3099C17.7144 19.4053 16.3529 19.9687 14.7254 20H6.27465C4.6471 19.9687 3.2856 19.4053 2.19014 18.3099C1.09468 17.2144 0.531299 15.8529 0.5 14.2254V5.77465C0.531299 4.1471 1.09468 2.7856 2.19014 1.69014C3.2856 0.594679 4.6471 0.0312977 6.27465 0ZM6.08685 1.97183C5.05399 2.00313 4.2011 2.35524 3.52817 3.02817C2.85524 3.7011 2.50313 4.55399 2.47183 5.58685V14.4131C2.50313 15.446 2.85524 16.2989 3.52817 16.9718C4.2011 17.6448 5.05399 17.9969 6.08685 18.0282H14.9131C15.946 17.9969 16.7989 17.6448 17.4718 16.9718C18.1448 16.2989 18.4969 15.446 18.5282 14.4131V5.58685C18.4969 4.55399 18.1448 3.7011 17.4718 3.02817C16.7989 2.35524 15.946 2.00313 14.9131 1.97183H6.08685ZM15.7582 3.47418C16.1025 3.50548 16.392 3.6385 16.6268 3.87324C16.8615 4.10798 16.9789 4.3975 16.9789 4.74178C16.9789 5.08607 16.8615 5.37559 16.6268 5.61033C16.392 5.84507 16.1025 5.96244 15.7582 5.96244C15.4139 5.96244 15.1244 5.84507 14.8897 5.61033C14.6549 5.37559 14.5376 5.08607 14.5376 4.74178C14.5376 4.3975 14.6549 4.10798 14.8897 3.87324C15.1244 3.6385 15.4139 3.50548 15.7582 3.47418ZM10.5 4.97653C11.9085 5.00782 13.09 5.50078 14.0446 6.4554C14.9992 7.41002 15.4922 8.59155 15.5235 10C15.4922 11.4085 14.9992 12.59 14.0446 13.5446C13.09 14.4992 11.9085 14.9922 10.5 15.0235C9.09155 14.9922 7.91002 14.4992 6.9554 13.5446C6.00078 12.59 5.50782 11.4085 5.47653 10C5.50782 8.59155 6.00078 7.41002 6.9554 6.4554C7.91002 5.50078 9.09155 5.00782 10.5 4.97653ZM10.5 6.99531C9.65493 7.0266 8.9507 7.32394 8.38732 7.88732C7.82394 8.4507 7.54225 9.15493 7.54225 10C7.54225 10.8451 7.82394 11.5493 8.38732 12.1127C8.9507 12.6761 9.65493 12.9577 10.5 12.9577C11.3451 12.9577 12.0493 12.6761 12.6127 12.1127C13.1761 11.5493 13.4577 10.8451 13.4577 10C13.4577 9.15493 13.1761 8.4507 12.6127 7.88732C12.0493 7.32394 11.3451 7.0266 10.5 6.99531Z" fill="black"/>
</svg>
