<svg width="20" height="20" viewBox="0 0 20 20" fill="none" xmlns="http://www.w3.org/2000/svg">
<path d="M10 0C4.47801 0 0 4.47801 0 10C0 15.522 4.47801 20 10 20C15.522 20 20 15.522 20 10C20 4.47801 15.522 0 10 0ZM10.212 15.8223C10.2121 15.8223 10.2118 15.8223 10.212 15.8223H10.2095C9.20777 15.8219 8.22344 15.5707 7.34926 15.094L4.17648 15.9261L5.02563 12.8255C4.5018 11.9182 4.22621 10.8888 4.22668 9.8343C4.22805 6.53535 6.91301 3.85148 10.212 3.85148C11.8129 3.85207 13.3157 4.47523 14.4457 5.60609C15.5757 6.73707 16.1977 8.24035 16.1971 9.83902C16.1957 13.1381 13.5104 15.8223 10.2119 15.8223L10.212 15.8223Z" fill="white"/>
<path d="M10.2141 4.86206C7.47012 4.86206 5.23855 7.09272 5.2373 9.83472C5.23703 10.7744 5.50008 11.6894 5.99797 12.4812L6.11621 12.6694L5.61359 14.5045L7.49641 14.0108L7.67812 14.1185C8.4418 14.5717 9.31738 14.8114 10.21 14.8117H10.212C12.9538 14.8117 15.1854 12.5808 15.1866 9.8387C15.1871 8.50979 14.6702 7.26042 13.731 6.3205C12.7918 5.38054 11.5427 4.86249 10.2141 4.86206ZM13.1402 11.9728C13.0155 12.3219 12.4181 12.6407 12.1308 12.6837C11.873 12.7221 11.5471 12.7382 11.1889 12.6245C10.9716 12.5555 10.6931 12.4635 10.3362 12.3096C8.83609 11.662 7.85633 10.152 7.78156 10.0521C7.7068 9.95237 7.1709 9.24147 7.1709 8.50554C7.1709 7.76976 7.55723 7.408 7.6943 7.25843C7.83144 7.10874 7.99352 7.07136 8.09313 7.07136C8.19277 7.07136 8.29258 7.07229 8.37973 7.07655C8.47156 7.08112 8.59484 7.04163 8.71617 7.33319C8.84082 7.63261 9.13992 8.36835 9.1773 8.44315C9.21469 8.51804 9.23953 8.60534 9.1898 8.70515C9.13992 8.80491 8.97418 9.02022 8.81598 9.21647C8.74957 9.2987 8.66309 9.37194 8.75035 9.52163C8.83746 9.67116 9.13777 10.1608 9.58227 10.5573C10.1536 11.0666 10.6354 11.2244 10.785 11.2993C10.9343 11.3741 11.0216 11.3615 11.1089 11.2619C11.196 11.1621 11.4827 10.8253 11.5823 10.6757C11.682 10.526 11.7818 10.551 11.9188 10.6009C12.056 10.6506 12.7912 11.0124 12.9407 11.0872C13.0902 11.1621 13.1899 11.1995 13.2273 11.2619C13.2648 11.3243 13.2648 11.6235 13.1402 11.9728Z" fill="white"/>
</svg>
